<?xml version="1.0" encoding="iso-8859-1"?>
<!-- Generator: Adobe Illustrator 19.0.0, SVG Export Plug-In . SVG Version: 6.00 Build 0)  -->
<svg version="1.1" id="Layer_1" xmlns="http://www.w3.org/2000/svg" xmlns:xlink="http://www.w3.org/1999/xlink" x="0px" y="0px"
	 viewBox="0 0 512 512" style="enable-background:new 0 0 512 512;" xml:space="preserve">
<path style="fill:#3A4447;" d="M212.11,287.364c-3.98,0-7.205-3.231-7.205-7.218v-33.201c0-2.383,1.172-4.612,3.136-5.957
	l84.314-57.741c1.221-0.837,2.644-1.26,4.069-1.26c1.152,0,2.307,0.277,3.362,0.835c2.365,1.25,3.845,3.706,3.845,6.383v90.941
	c0,3.986-3.227,7.218-7.21,7.218H212.11z"/>
<path style="fill:#43545B;" d="M122.623,287.364c-3.981,0-7.206-3.231-7.206-7.218v-33.201c0-2.383,1.174-4.612,3.138-5.957
	l84.313-57.741c1.221-0.837,2.643-1.26,4.069-1.26c1.154,0,2.308,0.277,3.362,0.835c2.365,1.25,3.845,3.706,3.845,6.383v90.941
	c0,3.986-3.228,7.218-7.208,7.218H122.623z"/>
<path style="fill:#E6E6E6;" d="M437.59,263.238l-9.643-197.041c0-7.633-6.229-13.821-13.911-13.821h-38.957
	c-7.682,0-13.911,6.188-13.911,13.821l-8.916,197.041H437.59z"/>
<path style="opacity:0.1;enable-background:new    ;" d="M372.024,299.758l10.568-233.561c0-7.633,6.229-13.821,13.911-13.821
	H375.08c-7.682,0-13.911,6.188-13.911,13.821l-10.568,233.561c0,7.633,16.797,13.821,24.479,13.821h21.424
	C388.821,313.578,372.024,307.391,372.024,299.758z"/>
<g>
	<path style="fill:#BC6C6C;" d="M422.813,106.848h-55.647c-4.329,0-7.837-3.509-7.837-7.837s3.508-7.837,7.837-7.837h55.647
		c4.329,0,7.837,3.509,7.837,7.837S427.141,106.848,422.813,106.848z"/>
	<path style="fill:#BC6C6C;" d="M422.813,147.006h-55.647c-4.329,0-7.837-3.509-7.837-7.837c0-4.328,3.508-7.837,7.837-7.837h55.647
		c4.329,0,7.837,3.509,7.837,7.837C430.649,143.497,427.141,147.006,422.813,147.006z"/>
	<path style="fill:#BC6C6C;" d="M431.461,187.164h-72.943c-4.086,0-7.397-3.509-7.397-7.837c0-4.328,3.311-7.837,7.397-7.837h72.943
		c4.085,0,7.396,3.509,7.396,7.837S435.546,187.164,431.461,187.164z"/>
</g>
<path style="fill:#52676D;" d="M441.257,61.035c0,3.43-2.799,6.211-6.253,6.211h-80.031c-3.453,0-6.251-2.782-6.251-6.211V34.947
	c0-3.431,2.798-6.212,6.251-6.212h80.031c3.454,0,6.253,2.782,6.253,6.212V61.035z"/>
<path style="fill:#435154;" d="M30.393,287.364c-3.981,0-7.207-3.231-7.207-7.218v-33.201c0-2.383,1.173-4.612,3.139-5.957
	l84.312-57.741c1.225-0.837,2.646-1.26,4.071-1.26c1.154,0,2.308,0.277,3.362,0.835c2.365,1.25,3.843,3.706,3.843,6.383v90.941
	c0,3.986-3.227,7.218-7.206,7.218H30.393z"/>
<path style="fill:#52676D;" d="M476.43,263.238H23.186V468.79H476.43c5.747,0,10.449-4.702,10.449-10.449V273.687
	C486.879,267.94,482.177,263.238,476.43,263.238z"/>
<path style="fill:#43545B;" d="M449.638,263.238v-14.611c0-5.747-4.7-10.449-10.445-10.449h-88.409
	c-5.745,0-10.444,4.702-10.444,10.449v14.611H449.638z"/>
<rect x="23.186" y="263.241" style="opacity:0.1;enable-background:new    ;" width="32.434" height="205.552"/>
<g>
	<path style="fill:#FFD267;" d="M94.969,345.187c0,2.08-1.698,3.766-3.791,3.766h-31.08c-2.096,0-3.793-1.685-3.793-3.766v-30.877
		c0-2.079,1.697-3.765,3.793-3.765h31.08c2.093,0,3.791,1.685,3.791,3.765V345.187z"/>
	<path style="fill:#FFD267;" d="M162.805,345.187c0,2.08-1.697,3.766-3.79,3.766h-31.084c-2.095,0-3.79-1.685-3.79-3.766v-30.877
		c0-2.079,1.695-3.765,3.79-3.765h31.084c2.093,0,3.79,1.685,3.79,3.765V345.187z"/>
	<path style="fill:#FFD267;" d="M230.64,345.187c0,2.08-1.698,3.766-3.79,3.766h-31.085c-2.094,0-3.79-1.685-3.79-3.766v-30.877
		c0-2.079,1.696-3.765,3.79-3.765h31.085c2.092,0,3.79,1.685,3.79,3.765V345.187z"/>
	<path style="fill:#FFD267;" d="M94.969,412.489c0,2.08-1.698,3.766-3.791,3.766h-31.08c-2.096,0-3.793-1.685-3.793-3.766v-30.877
		c0-2.081,1.697-3.766,3.793-3.766h31.08c2.093,0,3.791,1.684,3.791,3.766V412.489z"/>
	<path style="fill:#FFD267;" d="M162.805,412.489c0,2.08-1.697,3.766-3.79,3.766h-31.084c-2.095,0-3.79-1.685-3.79-3.766v-30.877
		c0-2.081,1.695-3.766,3.79-3.766h31.084c2.093,0,3.79,1.684,3.79,3.766V412.489z"/>
	<path style="fill:#FFD267;" d="M230.64,412.489c0,2.08-1.698,3.766-3.79,3.766h-31.085c-2.094,0-3.79-1.685-3.79-3.766v-30.877
		c0-2.081,1.696-3.766,3.79-3.766h31.085c2.092,0,3.79,1.684,3.79,3.766V412.489z"/>
	<path style="fill:#FFD267;" d="M298.475,345.187c0,2.08-1.697,3.766-3.79,3.766h-31.084c-2.096,0-3.791-1.685-3.791-3.766v-30.877
		c0-2.079,1.695-3.765,3.791-3.765h31.084c2.093,0,3.79,1.685,3.79,3.765V345.187z"/>
	<path style="fill:#FFD267;" d="M298.475,412.489c0,2.08-1.697,3.766-3.79,3.766h-31.084c-2.096,0-3.791-1.685-3.791-3.766v-30.877
		c0-2.081,1.695-3.766,3.791-3.766h31.084c2.093,0,3.79,1.684,3.79,3.766V412.489z"/>
</g>
<path style="fill:#9BD3DD;" d="M449.983,460.8c0,5.747-4.702,10.449-10.449,10.449h-89.091c-5.747,0-10.449-4.702-10.449-10.449
	V310.358c0-5.747,4.702-10.449,10.449-10.449h89.091c5.747,0,10.449,4.702,10.449,10.449V460.8z"/>
<path style="opacity:0.1;enable-background:new    ;" d="M361.535,460.8V310.358c0-5.747,4.702-10.449,10.449-10.449h-21.54
	c-5.747,0-10.449,4.702-10.449,10.449V460.8c0,5.747,4.702,10.449,10.449,10.449h21.54
	C366.237,471.249,361.535,466.547,361.535,460.8z"/>
<path id="SVGCleanerId_0" style="fill:#435154;" d="M504.163,473.615c0,5.307-4.354,9.651-9.676,9.651H17.511
	c-5.321,0-9.675-4.343-9.675-9.651v-9.65c0-5.308,4.354-9.651,9.675-9.651h476.976c5.322,0,9.676,4.343,9.676,9.651V473.615z"/>
<g>
	<path id="SVGCleanerId_0_1_" style="fill:#435154;" d="M504.163,473.615c0,5.307-4.354,9.651-9.676,9.651H17.511
		c-5.321,0-9.675-4.343-9.675-9.651v-9.65c0-5.308,4.354-9.651,9.675-9.651h476.976c5.322,0,9.676,4.343,9.676,9.651V473.615z"/>
</g>
<path style="opacity:0.1;enable-background:new    ;" d="M50.155,473.615v-9.65c0-5.308,4.354-9.651,9.675-9.651H17.511
	c-5.321,0-9.675,4.343-9.675,9.651v9.65c0,5.307,4.354,9.651,9.675,9.651H59.83C54.509,483.265,50.155,478.923,50.155,473.615z"/>
<path d="M416.914,362.057c-4.329,0-7.837,3.509-7.837,7.837v18.808c0,4.328,3.508,7.837,7.837,7.837
	c4.329,0,7.837-3.509,7.837-7.837v-18.808C424.751,365.566,421.243,362.057,416.914,362.057z"/>
<path d="M373.029,396.539c4.329,0,7.837-3.509,7.837-7.837v-18.808c0-4.328-3.508-7.837-7.837-7.837
	c-4.329,0-7.837,3.509-7.837,7.837v18.808C365.192,393.03,368.7,396.539,373.029,396.539z"/>
<path d="M60.097,356.79h31.08c6.411,0,11.628-5.206,11.628-11.603v-30.877c0-6.398-5.216-11.602-11.628-11.602h-31.08
	c-6.413,0-11.63,5.205-11.63,11.602v30.877C48.468,351.585,53.685,356.79,60.097,356.79z M64.141,318.381h22.991v22.735H64.141
	V318.381z"/>
<path d="M127.931,356.79h31.084c6.411,0,11.627-5.206,11.627-11.603v-30.877c0-6.398-5.215-11.602-11.627-11.602h-31.084
	c-6.411,0-11.627,5.205-11.627,11.602v30.877C116.304,351.585,121.52,356.79,127.931,356.79z M131.978,318.381h22.99v22.735h-22.99
	C131.978,341.116,131.978,318.381,131.978,318.381z"/>
<path d="M195.766,356.79h31.085c6.411,0,11.627-5.206,11.627-11.603v-30.877c0-6.398-5.215-11.602-11.627-11.602h-31.085
	c-6.411,0-11.627,5.205-11.627,11.602v30.877C184.139,351.585,189.354,356.79,195.766,356.79z M199.813,318.381h22.991v22.735
	h-22.991V318.381z"/>
<path d="M102.805,412.489v-30.877c0-6.397-5.216-11.603-11.628-11.603h-31.08c-6.413,0-11.63,5.206-11.63,11.603v30.877
	c0,6.398,5.217,11.603,11.63,11.603h31.08C97.589,424.092,102.805,418.887,102.805,412.489z M87.132,408.418H64.141v-22.735h22.991
	V408.418z"/>
<path d="M127.931,424.092h31.084c6.411,0,11.627-5.205,11.627-11.603v-30.877c0-6.397-5.215-11.603-11.627-11.603h-31.084
	c-6.411,0-11.627,5.206-11.627,11.603v30.877C116.304,418.887,121.52,424.092,127.931,424.092z M131.978,385.683h22.99v22.735
	h-22.99C131.978,408.418,131.978,385.683,131.978,385.683z"/>
<path d="M195.766,424.092h31.085c6.411,0,11.627-5.205,11.627-11.603v-30.877c0-6.397-5.215-11.603-11.627-11.603h-31.085
	c-6.411,0-11.627,5.206-11.627,11.603v30.877C184.139,418.887,189.354,424.092,195.766,424.092z M199.813,385.683h22.991v22.735
	h-22.991V385.683z"/>
<path d="M263.602,356.79h31.084c6.411,0,11.627-5.206,11.627-11.603v-30.877c0-6.398-5.215-11.602-11.627-11.602h-31.084
	c-6.411,0-11.628,5.205-11.628,11.602v30.877C251.975,351.585,257.191,356.79,263.602,356.79z M267.647,318.381h22.991v22.735
	h-22.991V318.381z"/>
<path d="M263.602,424.092h31.084c6.411,0,11.627-5.205,11.627-11.603v-30.877c0-6.397-5.215-11.603-11.627-11.603h-31.084
	c-6.411,0-11.628,5.206-11.628,11.603v30.877C251.975,418.887,257.191,424.092,263.602,424.092z M267.647,385.683h22.991v22.735
	h-22.991V385.683z"/>
<path d="M494.715,446.489V273.687c0-10.082-8.203-18.286-18.286-18.286h-18.954v-6.774c0-8.469-5.794-15.59-13.619-17.66
	l-7.632-155.947c7.199-0.62,12.869-6.651,12.869-13.986V34.947c0-7.747-6.321-14.049-14.089-14.049h-80.031
	c-7.769,0-14.087,6.303-14.087,14.049v26.087c0,7.052,5.243,12.891,12.045,13.884l-7.065,156.115
	c-7.695,2.156-13.362,9.217-13.362,17.594v6.774h-21.036v-66.196c0-5.596-3.073-10.698-8.018-13.311
	c-2.157-1.141-4.587-1.744-7.027-1.744c-3.046,0-5.985,0.91-8.496,2.631l-65.948,45.163v-32.738c0-5.596-3.073-10.698-8.014-13.309
	c-2.158-1.142-4.588-1.746-7.03-1.746c-3.046,0-5.985,0.91-8.496,2.631l-68.692,47.042v-34.617c0-5.598-3.072-10.699-8.012-13.31
	c-2.157-1.142-4.588-1.745-7.03-1.745c-3.041,0-5.978,0.908-8.499,2.631l-84.31,57.739c-4.101,2.807-6.55,7.451-6.55,12.425v199.681
	C6.711,447.694,0,455.055,0,463.965v9.65c0,9.642,7.856,17.487,17.511,17.487h476.976c9.656,0,17.512-7.845,17.512-17.487v-9.65
	C512,454.399,504.266,446.612,494.715,446.489z M348.178,248.626c0-1.416,1.194-2.612,2.607-2.612h7.615
	c4.329,0,7.837-3.509,7.837-7.837c0-3.204-1.925-5.955-4.679-7.17l7.055-155.926h16.954c4.329,0,7.837-3.509,7.837-7.837
	s-3.508-7.837-7.837-7.837h-29.008V36.571h76.862v22.837h-16.506c-4.329,0-7.837,3.509-7.837,7.837s3.508,7.837,7.837,7.837h3.622
	l7.597,155.259h-37.342c-4.329,0-7.837,3.509-7.837,7.837c0,4.328,3.508,7.837,7.837,7.837h48.402c1.415,0,2.608,1.196,2.608,2.612
	v6.774h-93.625v-6.775H348.178z M221.98,240.94l73.815-50.55v65.011H221.98L221.98,240.94L221.98,240.94z M129.749,242.82
	l76.559-52.43v65.011h-76.559C129.749,255.401,129.749,242.82,129.749,242.82z M31.023,247.269l83.053-56.879v65.011H31.023V247.269
	z M496.327,473.615c0,0.983-0.842,1.814-1.839,1.814H17.511c-0.996,0-1.838-0.831-1.838-1.814v-9.65
	c0-0.983,0.842-1.814,1.838-1.814h38.912c4.329,0,7.837-3.509,7.837-7.837s-3.508-7.837-7.837-7.837h-25.4V271.075H476.43
	c1.416,0,2.612,1.196,2.612,2.612v172.791H457.82v-136.12c0-10.083-8.202-18.286-18.286-18.286h-89.091
	c-10.082,0-18.286,8.202-18.286,18.286v136.12H91.951c-4.329,0-7.837,3.509-7.837,7.837s3.508,7.837,7.837,7.837h402.536
	c0.997,0,1.839,0.831,1.839,1.814V473.615z M442.146,310.358v136.12h-39.322V307.745h36.709
	C440.951,307.745,442.146,308.943,442.146,310.358z M387.152,307.745v138.732h-39.321v-136.12c0-1.416,1.196-2.612,2.612-2.612
	H387.152z"/>
<g>
</g>
<g>
</g>
<g>
</g>
<g>
</g>
<g>
</g>
<g>
</g>
<g>
</g>
<g>
</g>
<g>
</g>
<g>
</g>
<g>
</g>
<g>
</g>
<g>
</g>
<g>
</g>
<g>
</g>
</svg>
